<svg xmlns="http://www.w3.org/2000/svg" xmlns:xlink="http://www.w3.org/1999/xlink" width="444.152" height="373.685" viewBox="0 0 444.152 373.685">
  <defs>
    <linearGradient id="linear-gradient" x1="0.5" x2="0.5" y2="1" gradientUnits="objectBoundingBox">
      <stop offset="0" stop-color="#ff8ed0"/>
      <stop offset="1" stop-color="#ca98ff"/>
    </linearGradient>
  </defs>
  <g id="logo-color" transform="translate(-3216.772 -372.466)">
    <path id="Union_3" data-name="Union 3" d="M88.394,372.162C25.587,364.234,0,324.612,0,324.612s36.841-54.875,123.662-47.4,108.2,59.323,180.592,71.173,108.982-23.769,108.982-23.769-26.115-16.975-54.712-21.354-59.678,2.772-59.678,2.772a123.787,123.787,0,0,0,14.3,8.753c8.761,4.645,20.737,9.829,20.737,9.829s-22.89,3.186-42.727-3S250.7,297.1,250.7,297.1s58.916-24.748,113.311-14.579,80.141,42.087,80.141,42.087-33.162,53.733-116.118,47.55-116.7-57.017-190.976-68.9S30.915,324.612,30.915,324.612,49.662,341.3,76.2,345.942s67.583,0,67.583,0-3.986-4.641-13.138-9.974-23.469-11.356-23.469-11.356,28.037-.167,48.905,7.305S190.645,354.5,190.645,354.5s-29.574,19.189-78.283,19.189A191.332,191.332,0,0,1,88.394,372.162Zm131.654-84.649a94.744,94.744,0,0,1-11.052-5.8c-3.883-2.324-7.759-4.918-11.52-7.708A146.41,146.41,0,0,1,184,262.683a139.079,139.079,0,0,1-26.688-34.7A137.629,137.629,0,0,1,147.163,204a149.037,149.037,0,0,1-5.982-28.815,119.592,119.592,0,0,1,.994-31.517,168.876,168.876,0,0,1,8.238-31.1c6.549-18,16.346-36.94,29.117-56.3,5.017-7.608,10.512-15.3,16.33-22.862,4.655-6.05,9.527-12.03,14.48-17.776C218.788,5.822,224.594.057,224.652,0c.139.226,15.431,24.908,35.038,53.587,2.143,3.136,4.3,6.249,6.393,9.259,11.312,16.3,22,31.7,29.231,49.336a122.531,122.531,0,0,1,7.941,28.571A141.216,141.216,0,0,1,304,175.187a202.969,202.969,0,0,1-8.342,33.23,156.873,156.873,0,0,1-11.732,26.057,122.852,122.852,0,0,1-28.086,33.975,106.9,106.9,0,0,1-13.577,9.609,96.046,96.046,0,0,1-11.417,5.817,62.192,62.192,0,0,1-10.8,3.639ZM215.762,31.321a298.5,298.5,0,0,0-18.935,30.514c-12.281,22.85-26.185,56.894-22.669,89.312s15.655,54.6,25.222,67.5a105.474,105.474,0,0,0,13.991,15.518,57.136,57.136,0,0,0,6.128,4.914,46.663,46.663,0,0,0,7.793-3.4,75.268,75.268,0,0,0,17.455-13c11.753-11.674,26.21-33.559,28.339-71.529,1.439-25.659-9.471-48.666-19.1-68.964-1.985-4.186-3.858-8.137-5.637-12.109-12-26.808-23.638-50.251-23.754-50.485C224.564,19.634,220.946,24,215.762,31.321ZM387.79,217.28c17.683-21.342,13.193-41.309,13.193-41.309s-18.072-4.423-40.024,12.04S319.5,233.743,319.5,233.743s6.1-51.83,48.782-77.44,75.612-23.782,75.612-23.782,1.949,43.348-26.83,79.88-75,43.9-75,43.9S370.106,238.622,387.79,217.28ZM27.353,212.4C-1.427,175.869.523,132.521.523,132.521s32.928-1.829,75.612,23.782,48.782,77.44,48.782,77.44S105.4,204.475,83.452,188.011s-40.024-12.04-40.024-12.04-4.49,19.967,13.193,41.309S102.355,256.3,102.355,256.3,56.133,248.934,27.353,212.4Zm173.375-46.368a22,22,0,1,1,22,22A22,22,0,0,1,200.728,166.034Z" transform="translate(3216.772 372.466)" fill="url(#linear-gradient)"/>
  </g>
</svg>
