<svg xmlns="http://www.w3.org/2000/svg" width="444.152" height="463.034" viewBox="0 0 444.152 463.034">
  <g id="logo-world-black" transform="translate(-3813.772 -912.466)">
    <path id="Union_9" data-name="Union 9" d="M84.729,456.034a7,7,0,1,1,7,7A7,7,0,0,1,84.729,456.034Zm234.8,4.242c-3.159-2.983-.632-5.735-.632-5.735l29.062-40.069s3.63-4.91,9.607-4.91a11.666,11.666,0,0,1,9.181,4.91l30.316,40.565s1.067,3.005-2.989,5.239-7.046-1.609-7.046-1.609l-22.844-31.6s-3.416-4.91-6.619-4.91-6.191,4.91-6.191,4.91l-25.151,33.207a6.165,6.165,0,0,1-3.556,1.325A4.468,4.468,0,0,1,319.527,460.275Zm-74.411,0s-13.467-3.12-14.124-22.007a25,25,0,0,1,15.6-24.635h58.136s3.285.165,3.285,4.6-3.285,4.337-3.285,4.337l-54.852.1S239.7,425.951,239.2,436.954s10.675,14.452,10.675,14.452H295.37s4.27-.986,4.763-4.6-6.405-4.6-6.405-4.6l-30.382-.657s-3.755-.985-3.591-4.6a5.152,5.152,0,0,1,3.591-4.6h36.131s8.048,1.314,8.54,12.974-7.883,14.945-7.883,14.945Zm-81.887-.241a19.5,19.5,0,0,1-19.5-19.5v-6a19.5,19.5,0,0,1,19.5-19.5h37a19.5,19.5,0,0,1,19.5,19.5v6a19.5,19.5,0,0,1-19.5,19.5Zm-12.5-22.5a15.518,15.518,0,0,0,15.5,15.5h31a15.5,15.5,0,1,0,0-31h-31A15.518,15.518,0,0,0,150.728,437.534Zm200,11.5a7,7,0,1,1,7,7A7,7,0,0,1,350.728,449.034ZM48.034,421.73s-2.623-4.3,0-7.188,7.59,0,7.59,0,18.146,19.421,37.157,19.421S128.563,414.2,128.563,414.2s4.619-1.279,6.682.893.494,6.507.494,6.507-19.644,20.97-42.959,21.8c-.423.015-.849.022-1.27.022C68.693,443.425,48.034,421.73,48.034,421.73Zm40.36-49.568C25.587,364.234,0,324.612,0,324.612s36.841-54.875,123.662-47.4,108.2,59.323,180.592,71.173,108.982-23.769,108.982-23.769-26.115-16.975-54.712-21.354-59.678,2.772-59.678,2.772a123.787,123.787,0,0,0,14.3,8.753c8.761,4.645,20.737,9.829,20.737,9.829s-22.89,3.186-42.727-3S250.7,297.1,250.7,297.1s58.916-24.748,113.311-14.579,80.141,42.087,80.141,42.087-33.162,53.733-116.118,47.55-116.7-57.017-190.976-68.9S30.915,324.612,30.915,324.612,49.662,341.3,76.2,345.942s67.583,0,67.583,0-3.986-4.641-13.138-9.974-23.469-11.356-23.469-11.356,28.037-.167,48.905,7.305S190.645,354.5,190.645,354.5s-29.574,19.189-78.283,19.189A191.346,191.346,0,0,1,88.394,372.162Zm131.654-84.649a94.744,94.744,0,0,1-11.052-5.8c-3.883-2.324-7.759-4.918-11.52-7.708A146.41,146.41,0,0,1,184,262.683a139.079,139.079,0,0,1-26.688-34.7A137.629,137.629,0,0,1,147.163,204a149.037,149.037,0,0,1-5.982-28.815,119.592,119.592,0,0,1,.994-31.517,168.876,168.876,0,0,1,8.238-31.1c6.549-18,16.346-36.94,29.117-56.3,5.017-7.608,10.512-15.3,16.33-22.862,4.655-6.05,9.527-12.03,14.48-17.776C218.788,5.822,224.594.057,224.652,0c.139.226,15.431,24.908,35.038,53.587,2.143,3.136,4.3,6.249,6.393,9.259,11.312,16.3,22,31.7,29.231,49.336a122.531,122.531,0,0,1,7.941,28.571A141.216,141.216,0,0,1,304,175.187a202.969,202.969,0,0,1-8.342,33.23,156.873,156.873,0,0,1-11.732,26.057,122.852,122.852,0,0,1-28.086,33.975,106.9,106.9,0,0,1-13.577,9.609,96.046,96.046,0,0,1-11.417,5.817,62.192,62.192,0,0,1-10.8,3.639ZM215.762,31.321a298.5,298.5,0,0,0-18.935,30.514c-12.281,22.85-26.185,56.894-22.669,89.312s15.655,54.6,25.222,67.5a105.474,105.474,0,0,0,13.991,15.518,57.136,57.136,0,0,0,6.128,4.914,46.663,46.663,0,0,0,7.793-3.4,75.268,75.268,0,0,0,17.455-13c11.753-11.674,26.21-33.559,28.339-71.529,1.439-25.659-9.471-48.666-19.1-68.964-1.985-4.186-3.858-8.137-5.637-12.109-12-26.808-23.638-50.251-23.754-50.485C224.564,19.634,220.946,24,215.762,31.321ZM387.79,217.28c17.683-21.342,13.193-41.309,13.193-41.309s-18.072-4.423-40.024,12.04S319.5,233.743,319.5,233.743s6.1-51.83,48.782-77.44,75.612-23.782,75.612-23.782,1.949,43.348-26.83,79.88-75,43.9-75,43.9S370.106,238.622,387.79,217.28ZM27.353,212.4C-1.427,175.869.523,132.521.523,132.521s32.928-1.829,75.612,23.782,48.782,77.44,48.782,77.44S105.4,204.475,83.452,188.011s-40.024-12.04-40.024-12.04-4.49,19.967,13.193,41.309S102.355,256.3,102.355,256.3,56.133,248.934,27.353,212.4Zm173.375-46.368a22,22,0,1,1,22,22A22,22,0,0,1,200.728,166.034Z" transform="translate(3813.772 912.466)" fill="#716d6c"/>
  </g>
</svg>
